Results
version=1
nRows=17
nColumns=17
inDegrees=yes
endheader
time	/jointset/r_shoulder/r_shoulder_elev/value	/jointset/r_shoulder/r_shoulder_elev/speed	/jointset/r_elbow/r_elbow_flex/value	/jointset/r_elbow/r_elbow_flex/speed	/forceset/TRIlong/activation	/forceset/TRIlong/fiber_length	/forceset/TRIlat/activation	/forceset/TRIlat/fiber_length	/forceset/TRImed/activation	/forceset/TRImed/fiber_length	/forceset/BIClong/activation	/forceset/BIClong/fiber_length	/forceset/BICshort/activation	/forceset/BICshort/fiber_length	/forceset/BRA/activation	/forceset/BRA/fiber_length
      9.42486724	     -2.35593081	     -0.02121010	     22.87026134	      0.12949945	     -1.18800865	      0.14418706	     -1.18800865	      0.07955354	     -1.18800865	      0.07455073	     -1.18800865	      0.14353199	     -1.18800865	      0.14225576	     -1.18800865	      0.08795148
      9.43259531	     -2.35680057	     -0.20358683	     22.87156727	      0.20793283	     -1.18900364	      0.14418749	     -1.18900364	      0.07955389	     -1.18900364	      0.07455110	     -1.18900364	      0.14353164	     -1.18900364	      0.14225541	     -1.18900364	      0.08795121
      9.44292597	     -2.36015381	     -0.44506282	     22.87424700	      0.30992386	     -1.19033371	      0.14418704	     -1.19033371	      0.07955474	     -1.19033371	      0.07455197	     -1.19033371	      0.14353176	     -1.19033371	      0.14225495	     -1.19033371	      0.08795068
      9.45331145	     -2.36601997	     -0.68356178	     22.87797402	      0.40601868	     -1.19167085	      0.14418499	     -1.19167085	      0.07955602	     -1.19167085	      0.07455328	     -1.19167085	      0.14353221	     -1.19167085	      0.14225449	     -1.19167085	      0.08794970
      9.46020698	     -2.37127401	     -0.84009168	     22.88098839	      0.46820640	     -1.19255865	      0.14418329	     -1.19255865	      0.07955710	     -1.19255865	      0.07455437	     -1.19255865	      0.14353277	     -1.19255865	      0.14225420	     -1.19255865	      0.08794924
      9.46710252	     -2.37759857	     -0.99389375	     22.88441980	      0.52656743	     -1.19344645	      0.14418096	     -1.19344645	      0.07955836	     -1.19344645	      0.07455565	     -1.19344645	      0.14353356	     -1.19344645	      0.14225392	     -1.19344645	      0.08794840
      9.47661273	     -2.38804581	     -1.20256225	     22.88979938	      0.60458235	     -1.19467088	      0.14417695	     -1.19467088	      0.07956038	     -1.19467088	      0.07455768	     -1.19467088	      0.14353499	     -1.19467088	      0.14225357	     -1.19467088	      0.08794729
      9.48513443	     -2.39907441	     -1.38484313	     22.89523325	      0.66939966	     -1.19576805	      0.14417257	     -1.19576805	      0.07956244	     -1.19576805	      0.07455975	     -1.19576805	      0.14353662	     -1.19576805	      0.14225330	     -1.19576805	      0.08794592
      9.49365614	     -2.41163929	     -1.56372912	     22.90120845	      0.73359216	     -1.19686522	      0.14416746	     -1.19686522	      0.07956474	     -1.19686522	      0.07456206	     -1.19686522	      0.14353858	     -1.19686522	      0.14225307	     -1.19686522	      0.08794482
      9.50073568	     -2.42322250	     -1.70790031	     22.90657505	      0.78176751	     -1.19777672	      0.14416266	     -1.19777672	      0.07956681	     -1.19777672	      0.07456414	     -1.19777672	      0.14354046	     -1.19777672	      0.14225292	     -1.19777672	      0.08794340
      9.50781523	     -2.43581633	     -1.84938289	     22.91228039	      0.82982361	     -1.19868821	      0.14415737	     -1.19868821	      0.07956904	     -1.19868821	      0.07456637	     -1.19868821	      0.14354255	     -1.19868821	      0.14225280	     -1.19868821	      0.08794221
      9.51682903	     -2.45327788	     -2.02383573	     22.92002073	      0.88649968	     -1.19984873	      0.14414994	     -1.19984873	      0.07957207	     -1.19984873	      0.07456941	     -1.19984873	      0.14354554	     -1.19984873	      0.14225271	     -1.19984873	      0.08794037
      9.52584283	     -2.47228486	     -2.19282902	     22.92825798	      0.94185352	     -1.20100926	      0.14414176	     -1.20100926	      0.07957532	     -1.20100926	      0.07457266	     -1.20100926	      0.14354887	     -1.20100926	      0.14225268	     -1.20100926	      0.08793871
      9.53282722	     -2.48804195	     -2.31849068	     22.93497192	      0.98007385	     -1.20190850	      0.14413491	     -1.20190850	      0.07957797	     -1.20190850	      0.07457532	     -1.20190850	      0.14355169	     -1.20190850	      0.14225270	     -1.20190850	      0.08793698
      9.53981160	     -2.50466441	     -2.44075816	     22.94195137	      1.01833441	     -1.20280774	      0.14412763	     -1.20280774	      0.07958074	     -1.20280774	      0.07457809	     -1.20280774	      0.14355471	     -1.20280774	      0.14225275	     -1.20280774	      0.08793548
      9.54906864	     -2.52798317	     -2.59585761	     22.95159861	      1.06489370	     -1.20399958	      0.14411734	     -1.20399958	      0.07958458	     -1.20399958	      0.07458193	     -1.20399958	      0.14355902	     -1.20399958	      0.14225289	     -1.20399958	      0.08793320
      9.55832568	     -2.55270248	     -2.74396299	     22.96166300	      1.11042906	     -1.20519143	      0.14410635	     -1.20519143	      0.07958861	     -1.20519143	      0.07458595	     -1.20519143	      0.14356365	     -1.20519143	      0.14225310	     -1.20519143	      0.08793114
